<?xml version="1.0" encoding="UTF-8"?>
<svg version="1.1" xmlns="http://www.w3.org/2000/svg" width="48" height="48">
<path d="M0 0 C4.73236753 2.20891475 8.20898325 5.60718233 11 10 C12.7903482 17.19538676 11.93475543 23.28488164 9 30 C9.72574219 29.9175 10.45148437 29.835 11.19921875 29.75 C15.87265239 30.16715447 18.04838538 33.19913691 21.16796875 36.46875 C23.05972199 39.08251566 23.60773938 40.32404647 23.625 43.5 C23 47 23 47 22 48 C18.86929348 48.66450445 16.12766609 48.68524766 13 48 C8.92541879 45.19744999 5.54545397 42.10177643 4.28125 37.23046875 C4.1884375 36.49441406 4.095625 35.75835937 4 35 C2.906875 35.350625 1.81375 35.70125 0.6875 36.0625 C-4.6543483 37.34832543 -9.68014781 37.47473406 -15 36 C-19.2342675 33.31669596 -22.23155118 30.15267322 -25 26 C-25.83448357 19.23586876 -26.4890041 11.9940352 -22.3125 6.25 C-16.15629044 -0.8129381 -8.90662011 -1.25657733 0 0 Z " fill="#899AA7" transform="translate(25,0)"/>
<path d="M0 0 C3.89226984 1.97777939 6.39691769 4.96233007 8 9 C8.23974502 13.46724889 7.53895094 17.09533235 5.25 20.9375 C1.75267082 24.14338508 -0.79578094 24.89248044 -5.5 25.3125 C-10.30514025 24.88346962 -12.65422553 23.53139853 -15.8125 19.9375 C-17.56766891 15.59576638 -17.81046726 11.61229552 -17 7 C-13.11882416 -0.15861322 -7.5575333 -1.04321779 0 0 Z " fill="#B9DBF3" transform="translate(23,6)"/>
<path d="M0 0 C5.30340546 0.49691193 7.82067876 3.00898691 11.390625 6.7265625 C13.95856035 10.35408282 13.68115062 12.68604606 13 17 C11.47076806 18.52923194 10.06566732 18.39093248 7.9375 18.5625 C3.60557372 18.52784459 1.62192545 17.33885327 -1.5 14.375 C-4.47199364 11.06099122 -6 8.59533669 -6 4 C-5.195625 3.525625 -4.39125 3.05125 -3.5625 2.5625 C-1.15246512 1.23099846 -1.15246512 1.23099846 0 0 Z " fill="#62747D" transform="translate(35,30)"/>
<path d="M0 0 C0.99 0.33 1.98 0.66 3 1 C1.6875 3 1.6875 3 0 5 C-0.99 5 -1.98 5 -3 5 C-1.125 1.125 -1.125 1.125 0 0 Z " fill="#96A6B0" transform="translate(32,29)"/>
</svg>
